<svg id="logo" xmlns="http://www.w3.org/2000/svg" viewBox="0 0 242.54 52.8"><defs><style>.cls-1{fill:#e72420;}</style></defs><title>TEPCO_logo</title><polygon class="cls-1" points="1.58 0.37 0 11.66 15.06 11.66 9.32 52.44 22.28 52.44 28.01 11.66 43.05 11.66 44.64 0.37 1.58 0.37"/><polygon class="cls-1" points="88.67 0.37 87.08 11.65 49.81 11.65 51.39 0.37 88.67 0.37 88.67 0.37"/><polygon class="cls-1" points="85.8 20.77 84.22 32.04 46.94 32.04 48.52 20.77 85.8 20.77 85.8 20.77"/><polygon class="cls-1" points="82.94 41.16 81.36 52.44 44.08 52.44 45.66 41.16 82.94 41.16 82.94 41.16"/><path class="cls-1" d="M97.68,11.66H119c4.52,0,7,2.88,6.45,6.43-.57,3.85-3.62,6.43-8.17,6.43H96.17L92.25,52.44h12.94l2.34-16.64h9.3c12.5,0,20.39-7.54,21.81-17.72C140,8.3,133.37.37,121.82.37H99.27Z"/><path class="cls-1" d="M174.31.37c-19.6,0-29.66,9.42-31.74,25.45-1.94,14.89,8.57,26.62,25,26.62h12.66l1.59-11.27h-12c-10.67,0-15.25-7.2-14.1-15.35,1.28-9,7.85-14.17,19.94-14.17H186L187.59.37Z"/><path class="cls-1" d="M218.21,0C201.43,0,189.84,10.89,188,26.4c-1.7,14.4,9.46,26.4,24.16,26.4,16.77,0,28.37-10.89,30.21-26.4C244.08,12,232.91,0,218.21,0Zm11,26.4c-1.06,9.07-7.3,15.09-15.75,15.09-8.22,0-13.27-5.69-12.26-15.09,1.06-9.07,7.3-15.09,15.75-15.09C225.15,11.31,230.2,17,229.19,26.4Z"/></svg>